<svg width="280" height="280" viewBox="0 0 280 280" fill="none" xmlns="http://www.w3.org/2000/svg">
  <!-- Circular background -->
  <circle cx="140" cy="140" r="140" fill="#111827" />
  
  <!-- Abstract DNA/nutrient structure - twisted circles -->
  <g transform="rotate(15, 140, 140)">
    <!-- Protein (blue) -->
    <circle cx="100" cy="90" r="15" fill="#3B82F6" opacity="0.8" />
    <circle cx="180" cy="190" r="15" fill="#3B82F6" opacity="0.8" />
    
    <!-- Carbs (green) -->
    <circle cx="120" cy="130" r="25" fill="#10B981" opacity="0.7" />
    <circle cx="200" cy="150" r="12" fill="#10B981" opacity="0.7" />
    
    <!-- Fats (yellow/orange) -->
    <circle cx="160" cy="70" r="20" fill="#F59E0B" opacity="0.7" />
    <circle cx="80" cy="170" r="18" fill="#F59E0B" opacity="0.7" />
    
    <!-- Vitamins (pink/purple) -->
    <circle cx="140" cy="180" r="10" fill="#EC4899" opacity="0.8" />
    <circle cx="170" cy="110" r="8" fill="#8B5CF6" opacity="0.8" />
    <circle cx="90" cy="140" r="12" fill="#EC4899" opacity="0.8" />
  </g>
  
  <!-- Connecting lines representing nutrient connections -->
  <g stroke-width="2" stroke-linecap="round" opacity="0.4">
    <line x1="100" y1="90" x2="120" y2="130" stroke="#3B82F6" />
    <line x1="120" y1="130" x2="160" y2="70" stroke="#10B981" />
    <line x1="160" y1="70" x2="170" y2="110" stroke="#F59E0B" />
    <line x1="170" y1="110" x2="140" y2="180" stroke="#8B5CF6" />
    <line x1="140" y1="180" x2="80" y2="170" stroke="#EC4899" />
    <line x1="80" y1="170" x2="90" y2="140" stroke="#F59E0B" />
    <line x1="90" y1="140" x2="200" y2="150" stroke="#EC4899" />
    <line x1="200" y1="150" x2="180" y2="190" stroke="#10B981" />
  </g>
  
  <!-- Glowing core representing health -->
  <circle cx="140" cy="140" r="35" fill="url(#healthGlow)" />
  
  <!-- Gradient definitions -->
  <defs>
    <radialGradient id="healthGlow" cx="0" cy="0" r="1" gradientUnits="userSpaceOnUse" gradientTransform="translate(140 140) rotate(90) scale(35)">
      <stop offset="0%" stop-color="#10B981" stop-opacity="0.9" />
      <stop offset="100%" stop-color="#111827" stop-opacity="0" />
    </radialGradient>
  </defs>
</svg> 